<svg width="68" height="18" viewBox="0 0 68 18" xmlns="http://www.w3.org/2000/svg"><path d="M31.904 5.977c.227 0 .396.114.566.282l2.88 2.88c.567.563 1.187.846 2.035.846h5.368l-1.978 1.978h-5.03c-.28 0-.45-.057-.62-.227l-2.882-2.88c-.564-.567-1.185-.848-2.033-.848h-5.368l1.978-2.033h5.084zm1.98-1.13C33.317 4.282 32.638 4 31.904 4H26.03L21 8.97l5.03 5.027h2.824l-4.012-4.01h5.368c.226 0 .452.057.622.227l2.88 2.937c.565.567 1.244.848 1.978.848h5.933l4.973-5.028L41.623 4H38.74l4.013 4.01h-5.368c-.226 0-.394-.113-.564-.225l-2.936-2.937z" fill="#006" fill-rule="evenodd"/></svg>