<svg width="68" height="18" viewBox="0 0 68 18" xmlns="http://www.w3.org/2000/svg"><path d="M37.712 8.717c1.348.27 1.936 1.42 1.936 2.4 0 1.62-1.912 3.162-5.836 3.284-1.985.075-3.774-.807-5-1.614 0 0-.194-.123-.07-.27l.413-.59.148-.075c.096 0 .123.028.172.1.172.148.393.1.393-.07V6.27c0-.17-.22-.22-.37-.073-.07.074-.1.1-.194.1l-.148-.074-.465-.64c-.122-.146.073-.27.073-.27 1.324-.93 3.234-1.69 5.05-1.69 3.484 0 5.123 1.495 5.123 2.967 0 .832-.414 1.543-1.223 2.007-.073.02-.05.097 0 .12zm-4-3.943c-1.15.024-1.15.318-1.15.54V7.69c.024.05-.024.416.417.416h1.028c1.034 0 1.72-.758 1.72-1.69 0-.93-.785-1.642-1.842-1.642h-.174zm.665 8.427c1.18 0 2.11-.783 2.11-1.913 0-1.078-.833-1.984-2.11-1.984h-1.35c-.565 0-.466.442-.466.49v2.795c0 .466.37.638 1.817.613zM34.057 1c6.57 0 12.16 3.553 12.16 7.985 0 4.46-5.296 8.015-12.16 8.015C27.39 17 22 13.3 22 8.985 22 4.553 27.39 1 34.057 1zm.05 15.166c5.564 0 9.926-3.235 9.926-7.23 0-3.99-4.46-7.2-9.927-7.2-5.488 0-9.926 3.21-9.926 7.2 0 3.995 4.438 7.23 9.926 7.23z" fill="#03296A" fill-rule="evenodd"/></svg>