<svg width="68" height="18" viewBox="0 0 68 18" xmlns="http://www.w3.org/2000/svg"><path d="M44.92 3.866c-2.16.8-4.08.4-4.24-.72 1.12 0 2-.32 2.48-.56.48-.24 2.72-1.12 3.28-1.28 6.56-1.76 7.36 4.56 5.84 6.32-.16.16 0 .16.08.16.16 0 10.16 1.04 10.16 1.04l.08.16H51.4c-.4 0-.72-.24-.88-.4-.16-.24-.72-1.04-.72-1.04.56.08 1.28.08 1.44.08.32 0 .56-.24.56-.48v-1.04c0-.16 0-.16.08-.24.08-.08.08-.08.16-.08.16-.08.16-.16 0-.24-.08-.16-.4-.64-.56-.88-.08-.16-.08-.32-.08-.4v-.4c0-.72-.48-1.6-.96-1.84-.64-.24-1.36-.24-2.4.24-1.04.4-1.84 1.12-3.12 1.6zm2 4.32c.64-.08.88.08 1.2.32l.96.96c-.4 0-3.76.4-4.08.48-.24 0-.72.08-.96-.08l-.64-.64c.8-.32 2.16-.8 3.52-1.04zm-15.76 7.6c10.64-4.56 30.88-6.32 36.24-6.24l.16.24c-9.44.56-26.48 3.44-34.32 7.04-.56.24-.8.24-1.12-.08l-.96-.96zM8.6 4.187h.48l-.16.96c0 .4-.16.48-.48.48h-.16v-.8h-.72c0 .48-.24 2.32-.24 2.32-.08.24-.16.64-.16.8v.16h.48l-.08.16c-.08.08-.08.16-.16.24-.08.16-.16.16-.4.16H5.8l.16-.16c.16-.32.16-.56.24-1.2 0 0 .32-2.24.32-2.48h-.64c-.08 0-.08.16-.08.16l-.08.24c0 .16-.08.24-.16.32-.08.08-.16.08-.4.08H5l.24-1.44H8.6zm5.76 3.92h.48l-.08.16c-.08.16-.08.16-.16.24-.08.16-.16.16-.4.16h-1.12l.08-.16v-.08c.08-.08.16-.16.16-.32.08-.16.16-.48.16-.72 0 0 .08-.48.08-.72h-1.68v.24l-.08.64v.48h.56l-.08.16c-.08.16-.08.24-.08.24-.08.16-.16.16-.4.16h-1.2l.08-.16v-.08l.16-.32c0-.16.08-.4.08-.72l.24-1.84c0-.32.08-.56.08-.72h-.64l.08-.16c.08-.16.16-.16.16-.24.16-.16.24-.16.48-.08H12.28v.32l-.08.32-.08.48-.08.48v.16h1.6c0-.16.08-.56.08-.56V4.746h-.56l.08-.16c.08-.16.08-.24.16-.32.08-.08.16-.08.24-.08h1.28l-.08.32-.08.4-.16 1.04-.16 1.04-.08.64v.48zm11.04-.8c.08 0 .16 0 .4-.08h.16l-.24 1.44h-2.88l.08-.16.08-.24c.08-.24.16-.56.16-.88l.24-1.92c0-.24.08-.48 0-.8h-.64l.08-.16c.08-.08.08-.16.16-.24.08-.08.16-.08.24-.08h1.52l-.24.32v-.08.48l-.16.96-.08 1.12c0 .4-.08.8-.16 1.04h.96s0-.08.08-.16l.08-.24c.08-.16.08-.24.16-.32zm6.48-2.88c-.16.08-.16.08-.32.48l-.4.56-.24.24-.8 1.2v.72l-.08.32v.16h.56l-.16.16c-.08.16-.08.16-.16.24-.08.16-.16.16-.4.16h-1.04l.08-.16.08-.24c.08-.24.16-.56.16-.88 0 0 .08-.4.08-.48 0-.08-.72-1.92-.8-2.08h-.56l.08-.16c.08-.08.08-.16.16-.24.08-.16.16-.16.24-.16h1.04v.24c.08.16.16.48.32.96l.08.32s0 .16.16.32c.08-.24.24-.48.24-.48l.48-.88c.16-.24.24-.32.24-.48v-.08h1.2l-.24.24zm2.88 4.32c-.4 0-.72-.08-1.12-.24h-.08v-.08l.08-.72c0-.4.16-.48.48-.48h.16v.8s.08.08.24.08h.4c.24 0 .72-.08.72-.56 0-.16-.08-.32-.16-.4-.08-.08-.16-.16-.32-.24l-.64-.32c-.24-.08-.32-.16-.48-.24-.16-.16-.32-.4-.32-.72 0-.4.16-.8.48-1.04.32-.24.72-.4 1.2-.4.4 0 .8.08 1.04.24h.08l-.08.8c0 .32-.16.48-.48.48h-.16v-.8c-.16-.08-.32-.08-.56-.08-.48 0-.72.16-.72.48 0 .08.08.16.16.24.08.08.16.16.24.16l.72.4.16.08c.56.24.8.56.8 1.04 0 .88-.72 1.52-1.84 1.52zm-14.4-.64H21l-.16.16c-.08.16-.08.16-.16.24-.08.16-.16.16-.4.16h-.88v-.32c0-.16 0-.48-.08-.96 0 0-.08-.24-.08-.4h-1.2c-.08.08-.08.16-.08.16l-.48.96c-.16.24-.24.32-.24.48v.08H16.2l.24-.32.24-.32.32-.64.16-.32s1.04-2 1.2-2.32h-.56l.16-.16v-.08c0-.16.16-.32.24-.32H19.64s.72 3.68.72 3.92zm-2.08-1.68H19v-.08l-.08-.64s-.08-.24-.08-.48c-.16.4-.48.96-.56 1.2z" fill="#BF2235"/></svg>
