<svg width="80" height="20" viewBox="0 0 80 20" xmlns="http://www.w3.org/2000/svg"><path fill="#bf2235" d="M49.9 3.6c1.6-.6 2.6-1.5 3.9-2 1.3-.6 2.2-.6 3-.3.6.3 1.2 1.4 1.2 2.3v.5c0 .1 0 .3.1.5.2.3.6.9.7 1.1.2.1.2.2 0 .3-.1 0-.1 0-.2.1s-.1.1-.1.3v1.3c0 .3-.3.6-.7.6-.2 0-1.1 0-1.8-.1 0 0 .7 1 .9 1.3.2.2.6.5 1.1.5h14l-.1-.2S59.4 8.5 59.2 8.5c-.1 0-.3 0-.1-.2C61 6.1 60-1.8 51.8.4c-.7.2-3.5 1.3-4.1 1.6-.6.3-1.7.7-3.1.7.2 1.4 2.6 1.9 5.3.9M52.4 9c-1.7.3-3.4.9-4.4 1.3l.8.8c.3.2.9.1 1.2.1.4-.1 4.6-.6 5.1-.6l-1.2-1.2c-.4-.3-.7-.5-1.5-.4m-19.7 9.5l1.2 1.2c.4.4.7.4 1.4.1 9.8-4.5 31.1-8.1 42.9-8.8l-.2-.3c-6.7-.1-32 2.1-45.3 7.8M4.5 4H.3L0 5.8h.2c.3 0 .4 0 .5-.1.1-.1.2-.2.2-.4L1 5s0-.2.1-.2h.8c0 .3-.4 3.1-.4 3.1-.1.8-.1 1.1-.3 1.5l-.2.2h1.5c.3 0 .4 0 .5-.2.1-.1.1-.2.2-.3l.1-.2h-.6v-.2c0-.2.1-.7.2-1 0 0 .3-2.3.3-2.9h.9v1h.2c.4 0 .6-.1.6-.6L5.1 4h-.6zm7.2 4.9v-.6l.1-.8.2-1.3.2-1.3.1-.5.1-.4h-1.6c-.1 0-.2 0-.3.1-.1.1-.1.2-.2.4l-.1.2h.7v.9s-.1.5-.1.7h-2v-.2l.1-.6.1-.6.1-.4v-.4H7.9c-.3-.1-.4-.1-.6.1 0 .1-.1.1-.2.3l-.1.2h.8c0 .2-.1.5-.1.9l-.3 2.3c0 .4-.1.7-.1.9l-.2.4v.1l-.1.2h1.5c.3 0 .4 0 .5-.2 0 0 0-.1.1-.3l.1-.2h-.7v-.6l.1-.8v-.3h2.1c0 .3-.1.9-.1.9 0 .3-.1.7-.2.9 0 .2-.1.3-.2.4v.1l-.1.2h1.4c.3 0 .4 0 .5-.2.1-.1.1-.1.2-.3l.1-.2h-.6m4.9-2.1c.1-.3.5-1 .7-1.5 0 .3.1.6.1.6l.1.8v.1h-.9zm2.6 2.1c0-.3-.9-4.9-.9-4.9h-1.8c-.1 0-.3.2-.3.4v.1l-.2.2h.7c-.2.4-1.5 2.9-1.5 2.9L15 8l-.4.8-.3.4-.3.4h1.3v-.1c0-.2.1-.3.3-.6l.6-1.2s0-.1.1-.2h1.5c0 .2.1.5.1.5.1.6.1 1 .1 1.2v.4h1.1c.3 0 .4 0 .5-.2.1-.1.1-.1.2-.3l.2-.2h-.8m6.3-1c-.1.1-.1.2-.2.4l-.1.3c-.1.1-.1.2-.1.2h-1.2c.1-.3.2-.8.2-1.3l.1-1.4.2-1.2v-.6.1l.3-.4h-1.9c-.1 0-.2 0-.3.1-.1.1-.1.2-.2.3l-.1.2h.8c.1.4 0 .7 0 1L22.7 8c0 .4-.1.8-.2 1.1l-.1.3-.1.2h3.6l.3-1.8H26c-.3.1-.4.1-.5.1m8.1-3.6l.3-.3h-1.5v.1c0 .2-.1.3-.3.6l-.6 1.1s-.2.3-.3.6C31 6.2 31 6 31 6l-.1-.4c-.2-.6-.3-1-.4-1.2v-.3h-1.3c-.1 0-.2 0-.3.2-.1.1-.1.2-.2.3l-.1.2h.7c.1.2 1 2.5 1 2.6 0 .1-.1.6-.1.6 0 .4-.1.8-.2 1.1l-.1.3-.1.2h1.3c.3 0 .4 0 .5-.2.1-.1.1-.1.2-.3l.2-.2h-.7v-.2l.1-.4v-.9l1-1.5.3-.3.5-.7c.2-.5.2-.5.4-.6m3.6 5.4c1.4 0 2.3-.8 2.3-1.9 0-.6-.3-1-1-1.3l-.2-.1-.9-.5c-.1 0-.2-.1-.3-.2-.1-.1-.2-.2-.2-.3 0-.4.3-.6.9-.6.3 0 .5 0 .7.1v1h.2c.4 0 .6-.2.6-.6l.1-1h-.1C39 4.1 38.5 4 38 4c-.6 0-1.1.2-1.5.5-.4.3-.6.8-.6 1.3 0 .4.2.7.4.9.2.1.3.2.6.3l.8.4c.2.1.3.2.4.3.1.1.2.3.2.5 0 .6-.6.7-.9.7h-.5c-.2 0-.3-.1-.3-.1v-1h-.2c-.4 0-.6.1-.6.6l-.1.9v.1h.1c.5.2.9.3 1.4.3"/></svg>
