<svg width="20" height="20" viewBox="0 0 20 20" xmlns="http://www.w3.org/2000/svg"><title>manu_help_icon</title><g fill="none" fill-rule="evenodd"><circle fill="#c0c9cc" cx="10" cy="10" r="10"/><path d="M10.678 12.544v-.096c0-.656.304-1.152.864-1.552l.656-.464c.944-.672 1.584-1.568 1.584-2.832 0-1.616-1.296-3.184-3.776-3.184-2.368 0-3.664 1.664-3.664 3.392 0 .24.016.496.08.72l2.016.08a1.66 1.66 0 0 1-.064-.512c0-.896.496-1.808 1.632-1.808 1.072 0 1.6.704 1.6 1.44 0 .48-.208.912-.688 1.264l-.768.576c-.912.688-1.264 1.472-1.264 2.32 0 .24.032.448.064.656h1.728zm-2.096 2.32c0 .704.56 1.264 1.264 1.264s1.28-.56 1.28-1.264-.576-1.28-1.28-1.28a1.27 1.27 0 0 0-1.264 1.28z" fill="#FFF"/></g></svg>
