<?xml version="1.0" encoding="UTF-8" standalone="no"?><!DOCTYPE svg PUBLIC "-//W3C//DTD SVG 1.1//EN" "http://www.w3.org/Graphics/SVG/1.1/DTD/svg11.dtd"><svg width="20px" height="17px" viewBox="0 0 20 20" version="1.1" xmlns="http://www.w3.org/2000/svg" xmlns:xlink="http://www.w3.org/1999/xlink" xml:space="preserve" style="fill-rule:evenodd;clip-rule:evenodd;stroke-linejoin:round;stroke-miterlimit:1.41421;"><g><path d="M10,0l3.09,6.583l6.91,1.056l-5,5.125l1.18,7.236l-6.18,-3.417l-6.18,3.417l1.18,-7.236l-5,-5.125l6.91,-1.056l3.09,-6.583Z" style="fill:#ffe400;fill-rule:nonzero;"/><path d="M13.09,6.583l6.91,1.056l-5,5.125l1.18,7.236l-6.18,-3.417l-6.18,3.417l1.18,-7.236l-5,-5.125l6.91,-1.056l3.09,-6.583l3.09,6.583Zm-5.501,0.908l-5.514,0.843l3.993,4.093l-0.93,5.701l4.862,-2.688l4.862,2.688l-0.93,-5.701l3.993,-4.093l-5.514,-0.843l-2.411,-5.138l-2.411,5.138Z" style="fill:#ffbd24;"/></g></svg>
