<svg width="17" height="23" viewBox="0 0 17 23" xmlns="http://www.w3.org/2000/svg"><title>Group 4</title><g fill="#c0c9cc" fill-rule="evenodd"><path d="M.877 18.032l3.47 4.39a.877.877 0 0 0 .833.538h.042c.413 0 .691-.23.83-.536l3.472-4.392c.787-.996-.57-2.433-1.365-1.43l-1.972 2.496v-7.902c0-1.303-1.93-1.303-1.93 0v7.957l-2.016-2.55c-.794-1.005-2.151.433-1.364 1.429M16.25 5.428c-1.222-1.463-2.443-2.925-3.664-4.39C12.44.732 12.145.5 11.708.5h-.045c-.436 0-.73.23-.877.537L7.122 5.428c-.831.996.602 2.434 1.44 1.43l2.082-2.496v7.903c0 1.303 2.037 1.303 2.037 0V4.307l2.129 2.55c.838 1.005 2.27-.433 1.44-1.429"/></g></svg>